<svg version="1" xmlns="http://www.w3.org/2000/svg" width="2730.667" height="2730.667" viewBox="0 0 2048.000000 2048.000000"><path d="M484 321c0 .6-2.7 1-6 1s-6 .4-6 1c0 .5-1.8 1-4 1s-4 .4-4 1c0 .5-1.8 1-4 1s-4 .4-4 1c0 .5-1.8 1-4 1s-4 .4-4 1c0 .5-.9 1-2 1s-2 .4-2 1c0 .5-1.3 1-3 1-1.6 0-3 .4-3 1 0 .5-1.3 1-3 1-1.6 0-3 .4-3 1 0 .5-.9 1-2 1s-2 .4-2 1c0 .5-.9 1-2 1s-2 .4-2 1c0 .5-.9 1-2 1s-2 .4-2 1c0 .5-.8 1-1.8 1s-2.4.9-3.2 2c-.8 1.1-2.2 2-3.2 2s-1.8.4-1.8 1c0 .5-.9 1-2 1s-2 .4-2 1c0 .5-.7 1-1.6 1-.9 0-2.9 1.3-4.4 3-1.5 1.6-3.3 3-4 3-.7 0-2.5 1.3-4 3-1.5 1.6-3.3 3-3.9 3-1.5 0-26.1 24.6-26.1 26.1 0 .6-1.3 2.4-3 3.9-1.6 1.5-3 3.3-3 4 0 .7-1.3 2.5-3 4-1.6 1.5-3 3.5-3 4.4 0 .9-.4 1.6-1 1.6-.5 0-1 .9-1 2s-.4 2-1 2c-.5 0-1 .8-1 1.8s-.9 2.4-2 3.2c-1.1.8-2 2.2-2 3.2s-.4 1.8-1 1.8c-.5 0-1 .9-1 2s-.4 2-1 2c-.5 0-1 .9-1 2s-.4 2-1 2c-.5 0-1 .9-1 2s-.4 2-1 2c-.5 0-1 1.3-1 3 0 1.6-.4 3-1 3-.5 0-1 1.3-1 3 0 1.6-.4 3-1 3-.5 0-1 .9-1 2s-.4 2-1 2c-.5 0-1 1.8-1 4s-.4 4-1 4c-.5 0-1 1.8-1 4s-.4 4-1 4c-.5 0-1 1.8-1 4s-.4 4-1 4-1 2.7-1 6-.4 6-1 6c-.7 0-1 106-1 316s.3 316 1 316c.6 0 1 2.7 1 6s.4 6 1 6 1 1.8 1 4 .5 4 1 4c.6 0 1 1.8 1 4s.5 4 1 4c.6 0 1 1.8 1 4s.5 4 1 4c.6 0 1 .9 1 2s.5 2 1 2c.6 0 1 1.3 1 3 0 1.6.5 3 1 3 .6 0 1 1.3 1 3 0 1.6.5 3 1 3 .6 0 1 .9 1 2s.5 2 1 2c.6 0 1 .9 1 2s.5 2 1 2c.6 0 1 .9 1 2s.5 2 1 2c.6 0 1 .8 1 1.8s.9 2.4 2 3.2c1.1.8 2 2.2 2 3.2s.5 1.8 1 1.8c.6 0 1 .9 1 2s.5 2 1 2c.6 0 1 .7 1 1.6 0 .9 1.4 2.9 3 4.4 1.7 1.5 3 3.3 3 4 0 .7 1.4 2.5 3 4 1.7 1.5 3 3.3 3 3.9 0 1.5 24.6 26.1 26.1 26.1.6 0 2.4 1.3 3.9 3 1.5 1.6 3.3 3 4 3 .7 0 2.5 1.3 4 3 1.5 1.6 3.5 3 4.4 3 .9 0 1.6.4 1.6 1 0 .5.9 1 2 1s2 .4 2 1c0 .5.8 1 1.8 1s2.4.9 3.2 2c.8 1.1 2.2 2 3.2 2s1.8.4 1.8 1c0 .5.9 1 2 1s2 .4 2 1c0 .5.9 1 2 1s2 .4 2 1c0 .5.9 1 2 1s2 .4 2 1c0 .5 1.4 1 3 1 1.7 0 3 .4 3 1 0 .5 1.4 1 3 1 1.7 0 3 .4 3 1 0 .5.9 1 2 1s2 .4 2 1c0 .5 1.8 1 4 1s4 .4 4 1c0 .5 1.8 1 4 1s4 .4 4 1c0 .5 1.8 1 4 1s4 .4 4 1 2.7 1 6 1 6 .4 6 1c0 .7 19 1 55 1s55-.3 55-1c0-.6 1.4-1 3-1 1.7 0 3-.5 3-1 0-.6 1.4-1 3-1 1.7 0 3-.5 3-1 0-.6.9-1 2-1s2-.5 2-1c0-.6.8-1 1.8-1s2.4-.9 3.2-2c.8-1.1 2-2 2.7-2 1.7 0 10.3-8.6 10.3-10.3 0-.7.9-1.9 2-2.7 1.1-.8 2-2.2 2-3.2s.5-1.8 1-1.8c.6 0 1-.9 1-2s.5-2 1-2c.6 0 1-1.4 1-3 0-1.7.5-3 1-3 .6 0 1-1.4 1-3 0-1.7.5-3 1-3 .6 0 1-6.7 1-18s-.4-18-1-18c-.5 0-1-1.4-1-3 0-1.7-.4-3-1-3-.5 0-1-1.4-1-3 0-1.7-.4-3-1-3-.5 0-1-.9-1-2s-.4-2-1-2c-.5 0-1-.8-1-1.8s-.9-2.4-2-3.2c-1.1-.8-2-2-2-2.7 0-1.7-8.6-10.3-10.3-10.3-.7 0-1.9-.9-2.7-2-.8-1.1-2.2-2-3.2-2s-1.8-.5-1.8-1c0-.6-.9-1-2-1s-2-.5-2-1c0-.6-1.3-1-3-1-1.6 0-3-.5-3-1 0-.6-1.3-1-3-1-1.6 0-3-.5-3-1 0-.7-14.3-1-41-1s-41-.3-41-1c0-.6-3.7-1-9-1s-9-.4-9-1-1.3-1-3-1c-1.6 0-3-.5-3-1 0-.6-.9-1-2-1s-2-.5-2-1c0-.6-.9-1-2-1s-2-.5-2-1c0-.6-.9-1-2-1s-2-.5-2-1c0-.6-.7-1-1.5-1-2 0-14.5-12.5-14.5-14.5 0-.8-.4-1.5-1-1.5-.5 0-1-.9-1-2s-.4-2-1-2c-.5 0-1-.9-1-2s-.4-2-1-2c-.5 0-1-.9-1-2s-.4-2-1-2c-.5 0-1-1.4-1-3 0-1.7-.4-3-1-3s-1-3.7-1-9-.4-9-1-9c-.7 0-1-96.7-1-288s.3-288 1-288c.6 0 1-3.7 1-9s.4-9 1-9 1-1.4 1-3c0-1.7.5-3 1-3 .6 0 1-.9 1-2s.5-2 1-2c.6 0 1-.9 1-2s.5-2 1-2c.6 0 1-.9 1-2s.5-2 1-2c.6 0 1-.7 1-1.5 0-2 12.5-14.5 14.5-14.5.8 0 1.5-.5 1.5-1 0-.6.9-1 2-1s2-.5 2-1c0-.6.9-1 2-1s2-.5 2-1c0-.6.9-1 2-1s2-.5 2-1c0-.6 1.4-1 3-1 1.7 0 3-.5 3-1 0-.6 3.7-1 9-1s9-.4 9-1c0-.7 96.7-1 288-1s288 .3 288 1c0 .6 3.7 1 9 1s9 .4 9 1c0 .5 1.4 1 3 1 1.7 0 3 .4 3 1 0 .5.9 1 2 1s2 .4 2 1c0 .5.9 1 2 1s2 .4 2 1c0 .5.9 1 2 1s2 .4 2 1c0 .5.7 1 1.5 1 2 0 14.5 12.5 14.5 14.5 0 .8.5 1.5 1 1.5.6 0 1 .9 1 2s.5 2 1 2c.6 0 1 .9 1 2s.5 2 1 2c.6 0 1 .9 1 2s.5 2 1 2c.6 0 1 1.3 1 3 0 1.6.5 3 1 3 .6 0 1 3.7 1 9s.4 9 1 9c.7 0 1 14.3 1 41s.3 41 1 41c.6 0 1 1.3 1 3 0 1.6.5 3 1 3 .6 0 1 1.3 1 3 0 1.6.5 3 1 3 .6 0 1 .9 1 2s.5 2 1 2c.6 0 1 .8 1 1.8s.9 2.4 2 3.2c1.1.8 2 2 2 2.7 0 .8 2 3.4 4.5 5.8 2.4 2.5 5 4.5 5.8 4.5.7 0 1.9.9 2.7 2 .8 1.1 2.2 2 3.2 2s1.8.4 1.8 1c0 .5.9 1 2 1s2 .4 2 1c0 .5 1.4 1 3 1 1.7 0 3 .4 3 1 0 .5 1.4 1 3 1 1.7 0 3 .4 3 1s6.7 1 18 1 18-.4 18-1 1.4-1 3-1c1.7 0 3-.5 3-1 0-.6 1.4-1 3-1 1.7 0 3-.5 3-1 0-.6.9-1 2-1s2-.5 2-1c0-.6.8-1 1.8-1s2.4-.9 3.2-2c.8-1.1 2-2 2.7-2 .8 0 3.4-2 5.8-4.5 2.5-2.4 4.5-5 4.5-5.8 0-.7.9-1.9 2-2.7 1.1-.8 2-2.2 2-3.2s.5-1.8 1-1.8c.6 0 1-.9 1-2s.5-2 1-2c.6 0 1-1.4 1-3 0-1.7.5-3 1-3 .6 0 1-1.4 1-3 0-1.7.5-3 1-3 .7 0 1-19 1-55s-.3-55-1-55c-.6 0-1-2.7-1-6s-.4-6-1-6c-.5 0-1-1.8-1-4s-.4-4-1-4c-.5 0-1-1.8-1-4s-.4-4-1-4c-.5 0-1-1.8-1-4s-.4-4-1-4c-.5 0-1-.9-1-2s-.4-2-1-2c-.5 0-1-1.4-1-3 0-1.7-.4-3-1-3-.5 0-1-1.4-1-3 0-1.7-.4-3-1-3-.5 0-1-.9-1-2s-.4-2-1-2c-.5 0-1-.9-1-2s-.4-2-1-2c-.5 0-1-.9-1-2s-.4-2-1-2c-.5 0-1-.8-1-1.8s-.9-2.4-2-3.2c-1.1-.8-2-2.2-2-3.2s-.4-1.8-1-1.8c-.5 0-1-.9-1-2s-.4-2-1-2c-.5 0-1-.7-1-1.6 0-.9-1.4-2.9-3-4.4-1.7-1.5-3-3.3-3-4 0-.7-1.4-2.5-3-4-1.7-1.5-3-3.3-3-3.9 0-1.5-24.6-26.1-26.1-26.1-.6 0-2.4-1.4-3.9-3-1.5-1.7-3.4-3-4.2-3-.7 0-2-.9-2.8-2-.8-1.1-2.1-2-3-2-.9 0-2.2-.9-3-2-.8-1.1-2.2-2-3.2-2s-1.8-.5-1.8-1c0-.6-.8-1-1.8-1s-2.4-.9-3.2-2c-.8-1.1-2.2-2-3.2-2s-1.8-.5-1.8-1c0-.6-.9-1-2-1s-2-.5-2-1c0-.6-.9-1-2-1s-2-.5-2-1c0-.6-.9-1-2-1s-2-.5-2-1c0-.6-1.3-1-3-1-1.6 0-3-.5-3-1 0-.6-1.3-1-3-1-1.6 0-3-.5-3-1 0-.6-.9-1-2-1s-2-.5-2-1c0-.6-1.8-1-4-1s-4-.5-4-1c0-.6-1.8-1-4-1s-4-.5-4-1c0-.6-1.8-1-4-1s-4-.5-4-1c0-.6-2.7-1-6-1s-6-.4-6-1c0-.7-106-1-316-1s-316 .3-316 1z"/><path d="M932 769c0 .6-2.7 1-6 1s-6 .4-6 1c0 .5-1.8 1-4 1s-4 .4-4 1c0 .5-1.8 1-4 1s-4 .4-4 1c0 .5-1.8 1-4 1s-4 .4-4 1c0 .5-.9 1-2 1s-2 .4-2 1c0 .5-1.3 1-3 1-1.6 0-3 .4-3 1 0 .5-1.3 1-3 1-1.6 0-3 .4-3 1 0 .5-.9 1-2 1s-2 .4-2 1c0 .5-.9 1-2 1s-2 .4-2 1c0 .5-.9 1-2 1s-2 .4-2 1c0 .5-.9 1-2 1s-2 .4-2 1c0 .5-.8 1-1.8 1s-2.4.9-3.2 2c-.8 1.1-2.2 2-3.2 2s-1.8.4-1.8 1c0 .5-.7 1-1.6 1-.9 0-2.9 1.3-4.4 3-1.5 1.6-3.3 3-4 3-.7 0-2.5 1.3-4 3-1.5 1.6-3.3 3-3.9 3-1.5 0-26.1 24.6-26.1 26.1 0 .6-1.3 2.4-3 3.9-1.6 1.5-3 3.3-3 4 0 .7-1.3 2.5-3 4-1.6 1.5-3 3.5-3 4.4 0 .9-.4 1.6-1 1.6-.5 0-1 .8-1 1.8s-.9 2.4-2 3.2c-1.1.8-2 2.2-2 3.2s-.4 1.8-1 1.8c-.5 0-1 .9-1 2s-.4 2-1 2c-.5 0-1 .9-1 2s-.4 2-1 2c-.5 0-1 .9-1 2s-.4 2-1 2c-.5 0-1 .9-1 2s-.4 2-1 2c-.5 0-1 1.3-1 3 0 1.6-.4 3-1 3-.5 0-1 1.3-1 3 0 1.6-.4 3-1 3-.5 0-1 .9-1 2s-.4 2-1 2c-.5 0-1 1.8-1 4s-.4 4-1 4c-.5 0-1 1.8-1 4s-.4 4-1 4c-.5 0-1 1.8-1 4s-.4 4-1 4-1 2.7-1 6-.4 6-1 6c-.7 0-1 106-1 316s.3 316 1 316c.6 0 1 2.7 1 6s.4 6 1 6 1 1.8 1 4 .5 4 1 4c.6 0 1 1.8 1 4s.5 4 1 4c.6 0 1 1.8 1 4s.5 4 1 4c.6 0 1 .9 1 2s.5 2 1 2c.6 0 1 1.3 1 3 0 1.6.5 3 1 3 .6 0 1 1.3 1 3 0 1.6.5 3 1 3 .6 0 1 .9 1 2s.5 2 1 2c.6 0 1 .9 1 2s.5 2 1 2c.6 0 1 .9 1 2s.5 2 1 2c.6 0 1 .9 1 2s.5 2 1 2c.6 0 1 .8 1 1.8s.9 2.4 2 3.2c1.1.8 2 2.2 2 3.2s.5 1.8 1 1.8c.6 0 1 .7 1 1.6 0 .9 1.4 2.9 3 4.4 1.7 1.5 3 3.3 3 4 0 .7 1.4 2.5 3 4 1.7 1.5 3 3.3 3 3.9 0 1.5 24.6 26.1 26.1 26.1.6 0 2.4 1.3 3.9 3 1.5 1.6 3.3 3 4 3 .7 0 2.5 1.3 4 3 1.5 1.6 3.5 3 4.4 3 .9 0 1.6.4 1.6 1 0 .5.8 1 1.8 1s2.4.9 3.2 2c.8 1.1 2.2 2 3.2 2s1.8.4 1.8 1c0 .5.9 1 2 1s2 .4 2 1c0 .5.9 1 2 1s2 .4 2 1c0 .5.9 1 2 1s2 .4 2 1c0 .5.9 1 2 1s2 .4 2 1c0 .5 1.4 1 3 1 1.7 0 3 .4 3 1 0 .5 1.4 1 3 1 1.7 0 3 .4 3 1 0 .5.9 1 2 1s2 .4 2 1c0 .5 1.8 1 4 1s4 .4 4 1c0 .5 1.8 1 4 1s4 .4 4 1c0 .5 1.8 1 4 1s4 .4 4 1 2.7 1 6 1 6 .4 6 1c0 .7 106 1 316 1s316-.3 316-1c0-.6 2.7-1 6-1s6-.4 6-1 1.8-1 4-1 4-.5 4-1c0-.6 1.8-1 4-1s4-.5 4-1c0-.6 1.8-1 4-1s4-.5 4-1c0-.6.9-1 2-1s2-.5 2-1c0-.6 1.4-1 3-1 1.7 0 3-.5 3-1 0-.6 1.4-1 3-1 1.7 0 3-.5 3-1 0-.6.9-1 2-1s2-.5 2-1c0-.6.9-1 2-1s2-.5 2-1c0-.6.9-1 2-1s2-.5 2-1c0-.6.9-1 2-1s2-.5 2-1c0-.6.8-1 1.8-1s2.4-.9 3.2-2c.8-1.1 2.2-2 3.2-2s1.8-.5 1.8-1c0-.6.7-1 1.6-1 .9 0 2.9-1.4 4.4-3 1.5-1.7 3.3-3 4-3 .7 0 2.5-1.4 4-3 1.5-1.7 3.3-3 3.9-3 1.5 0 26.1-24.6 26.1-26.1 0-.6 1.4-2.4 3-3.9 1.7-1.5 3-3.3 3-4 0-.7 1.4-2.5 3-4 1.7-1.5 3-3.5 3-4.4 0-.9.5-1.6 1-1.6.6 0 1-.8 1-1.8s.9-2.4 2-3.2c1.1-.8 2-2.2 2-3.2s.5-1.8 1-1.8c.6 0 1-.9 1-2s.5-2 1-2c.6 0 1-.9 1-2s.5-2 1-2c.6 0 1-.9 1-2s.5-2 1-2c.6 0 1-.9 1-2s.5-2 1-2c.6 0 1-1.4 1-3 0-1.7.5-3 1-3 .6 0 1-1.4 1-3 0-1.7.5-3 1-3 .6 0 1-.9 1-2s.5-2 1-2c.6 0 1-1.8 1-4s.5-4 1-4c.6 0 1-1.8 1-4s.5-4 1-4c.6 0 1-1.8 1-4s.5-4 1-4c.6 0 1-2.7 1-6s.4-6 1-6c.7 0 1-106 1-316s-.3-316-1-316c-.6 0-1-2.7-1-6s-.4-6-1-6c-.5 0-1-1.8-1-4s-.4-4-1-4c-.5 0-1-1.8-1-4s-.4-4-1-4c-.5 0-1-1.8-1-4s-.4-4-1-4c-.5 0-1-.9-1-2s-.4-2-1-2c-.5 0-1-1.4-1-3 0-1.7-.4-3-1-3-.5 0-1-1.4-1-3 0-1.7-.4-3-1-3-.5 0-1-.9-1-2s-.4-2-1-2c-.5 0-1-.9-1-2s-.4-2-1-2c-.5 0-1-.9-1-2s-.4-2-1-2c-.5 0-1-.9-1-2s-.4-2-1-2c-.5 0-1-.8-1-1.8s-.9-2.4-2-3.2c-1.1-.8-2-2.2-2-3.2s-.4-1.8-1-1.8c-.5 0-1-.7-1-1.6 0-.9-1.3-2.9-3-4.4-1.7-1.5-3-3.3-3-4 0-.7-1.3-2.5-3-4s-3-3.3-3-3.9c0-1.5-24.6-26.1-26.1-26.1-.6 0-2.4-1.4-3.9-3-1.5-1.7-3.3-3-4-3-.7 0-2.5-1.4-4-3-1.5-1.7-3.5-3-4.4-3-.9 0-1.6-.5-1.6-1 0-.6-.8-1-1.8-1s-2.4-.9-3.2-2c-.8-1.1-2.2-2-3.2-2s-1.8-.5-1.8-1c0-.6-.9-1-2-1s-2-.5-2-1c0-.6-.9-1-2-1s-2-.5-2-1c0-.6-.9-1-2-1s-2-.5-2-1c0-.6-.9-1-2-1s-2-.5-2-1c0-.6-1.3-1-3-1-1.6 0-3-.5-3-1 0-.6-1.3-1-3-1-1.6 0-3-.5-3-1 0-.6-.9-1-2-1s-2-.5-2-1c0-.6-1.8-1-4-1s-4-.5-4-1c0-.6-1.8-1-4-1s-4-.5-4-1c0-.6-1.8-1-4-1s-4-.5-4-1c0-.6-2.7-1-6-1s-6-.4-6-1c0-.7-106-1-316-1s-316 .3-316 1zm604 128c0 .6 3.7 1 9 1s9 .4 9 1c0 .5 1.4 1 3 1 1.7 0 3 .4 3 1 0 .5.9 1 2 1s2 .4 2 1c0 .5.9 1 2 1s2 .4 2 1c0 .5.9 1 2 1s2 .4 2 1c0 .5.7 1 1.5 1 2 0 14.5 12.5 14.5 14.5 0 .8.5 1.5 1 1.5.6 0 1 .9 1 2s.5 2 1 2c.6 0 1 .9 1 2s.5 2 1 2c.6 0 1 .9 1 2s.5 2 1 2c.6 0 1 1.3 1 3 0 1.6.5 3 1 3 .6 0 1 3.7 1 9s.4 9 1 9c.7 0 1 96.7 1 288s-.3 288-1 288c-.6 0-1 3.7-1 9s-.4 9-1 9c-.5 0-1 1.3-1 3 0 1.6-.4 3-1 3-.5 0-1 .9-1 2s-.4 2-1 2c-.5 0-1 .9-1 2s-.4 2-1 2c-.5 0-1 .9-1 2s-.4 2-1 2c-.5 0-1 .7-1 1.5 0 2-12.5 14.5-14.5 14.5-.8 0-1.5.4-1.5 1 0 .5-.9 1-2 1s-2 .4-2 1c0 .5-.9 1-2 1s-2 .4-2 1c0 .5-.9 1-2 1s-2 .4-2 1c0 .5-1.3 1-3 1-1.6 0-3 .4-3 1s-3.7 1-9 1-9 .4-9 1c0 .7-96.7 1-288 1s-288-.3-288-1c0-.6-3.7-1-9-1s-9-.4-9-1-1.3-1-3-1c-1.6 0-3-.5-3-1 0-.6-.9-1-2-1s-2-.5-2-1c0-.6-.9-1-2-1s-2-.5-2-1c0-.6-.9-1-2-1s-2-.5-2-1c0-.6-.7-1-1.5-1-2 0-14.5-12.5-14.5-14.5 0-.8-.4-1.5-1-1.5-.5 0-1-.9-1-2s-.4-2-1-2c-.5 0-1-.9-1-2s-.4-2-1-2c-.5 0-1-.9-1-2s-.4-2-1-2c-.5 0-1-1.4-1-3 0-1.7-.4-3-1-3s-1-3.7-1-9-.4-9-1-9c-.7 0-1-96.7-1-288s.3-288 1-288c.6 0 1-3.7 1-9s.4-9 1-9 1-1.4 1-3c0-1.7.5-3 1-3 .6 0 1-.9 1-2s.5-2 1-2c.6 0 1-.9 1-2s.5-2 1-2c.6 0 1-.9 1-2s.5-2 1-2c.6 0 1-.7 1-1.5 0-2 12.5-14.5 14.5-14.5.8 0 1.5-.5 1.5-1 0-.6.9-1 2-1s2-.5 2-1c0-.6.9-1 2-1s2-.5 2-1c0-.6.9-1 2-1s2-.5 2-1c0-.6 1.4-1 3-1 1.7 0 3-.5 3-1 0-.6 3.7-1 9-1s9-.4 9-1c0-.7 96.7-1 288-1s288 .3 288 1z"/></svg>