<svg version="1" xmlns="http://www.w3.org/2000/svg" width="682.667" height="682.667" viewBox="0 0 512.000000 512.000000"><path d="M116.3 81.4c-17.6 4.3-31.5 18.7-35.2 36.4-1.5 7.4-1.5 157 0 164.4 3.8 18.2 18.5 32.9 36.7 36.7 2.9.6 10.8 1.1 17.5 1.1 15.3 0 19.7-1.6 22.7-8.2 4-8.8 1.2-18.4-6.2-21.8-3.4-1.6-6.6-2-15.8-2-14.5-.1-19.1-1.7-22-8.2-1.9-4.1-2-7.2-2-79.8s.1-75.7 2-79.8c1.5-3.3 2.9-4.7 6.2-6.2 4.1-1.9 7.2-2 79.8-2s75.7.1 79.8 2c6.5 2.9 8.1 7.5 8.2 22 .1 14.5 1.7 19.1 8.2 22 8.8 4 18.4 1.2 21.8-6.2 1.6-3.5 2-6.6 2-16.5 0-14.3-1.1-20.4-5.2-29.1-5.7-12.2-18.7-22.2-32.6-25.1-7.9-1.6-158.9-1.4-165.9.3z"/><path d="M226.9 193.8c-16.6 4.4-29.6 17.7-33.3 34.2-2.4 10.3-2.4 157.7 0 168 3.7 16.5 16.7 29.8 33.3 34.2 6 1.5 14.2 1.7 84.4 1.7 86.6.1 86.3.1 97.4-6.5 7.5-4.5 12-9 16.3-16.1 7-11.5 6.9-9.8 6.9-97.3s.1-85.8-6.9-97.3c-4.3-7.1-8.8-11.6-16.3-16.1-11.1-6.6-10.8-6.6-97.4-6.5-70.2 0-78.4.2-84.4 1.7zM391.8 226c3.3 1.5 4.7 2.9 6.2 6.2 1.9 4.1 2 7.2 2 79.8s-.1 75.7-2 79.8c-1.5 3.3-2.9 4.7-6.2 6.2-4.1 1.9-7.2 2-79.8 2s-75.7-.1-79.8-2c-3.3-1.5-4.7-2.9-6.2-6.2-1.9-4.1-2-7.2-2-79.8s.1-75.7 2-79.8c1.5-3.3 2.9-4.7 6.2-6.2 4.1-1.9 7.2-2 79.8-2s75.7.1 79.8 2z"/></svg>